# xmcd
#
# Track frame offsets: 
#        150
#        22396
#        40802
#        59498
#        83743
#        102192
#        113755
#        141257
#        160187
#        178196
#        193482
#        213150
#        231239
#        246335
#        260921
#        282653
#        296738
#        313524
#        337319
#
# Disc length: 4769 seconds
#
# Revision: 4
# Processed by: cddbd v1.5.2PL0 Copyright (c) Steve Scherf et al.
# Submitted via: ExactAudioCopyFreeDBPlugin 1.0
#
DISCID=38129f13
DTITLE=Various Artist - Alligator Records 40th Anniversary Collection
DYEAR=2011
DGENRE=Blues
TTITLE0=Robert Cray - T-bone Shuffle
TTITLE1=Lonnie Brooks - Don't Take Advantage Of Me
TTITLE2=Eddy Clearwater - A Good Leavin' Alone
TTITLE3=Hound Dog Taylor - Sitting At Home Alone
TTITLE4=Elvin Bishop - Roll Your Moneymaker
TTITLE5=James Cotton - With The Quickness
TTITLE6=Shemekia Copeland - It's My Own Tears
TTITLE7=Professor Longhair - Red Beans
TTITLE8=Charlie Musselwhite - Where HWY 61 Runs
TTITLE9=Delbert McClinton - You Can't Judge A Book By The Cover
TTITLE10=Mavis Staples - Step Into The Lght
TTITLE11=Tinsley Ellis - Speak No Evil
TTITLE12=Eric Lindell - It's A Drag
TTITLE13=Saffire-The Uppity Blues Women - Going Down To The River
TTITLE14=The Holmes Brothers - Feed My Soul
TTITLE15=Katie Webster - Two-fisted Mama
TTITLE16=William Clarke - Daddy Pinocchio
TTITLE17=Buckwheat Zydeco - When The Levee Breaks
TTITLE18=JJ Grey and Mofro - The Sun Is Shining Down
EXTD=
EXTT0=
EXTT1=
EXTT2=
EXTT3=
EXTT4=
EXTT5=
EXTT6=
EXTT7=
EXTT8=
EXTT9=
EXTT10=
EXTT11=
EXTT12=
EXTT13=
EXTT14=
EXTT15=
EXTT16=
EXTT17=
EXTT18=
PLAYORDER=
